<?xml version="1.0" encoding="UTF-8"?>
<svg id="Capa_1" data-name="Capa 1" xmlns="http://www.w3.org/2000/svg" viewBox="0 0 1907.98 575.4">
  <defs>
    <style>
      .cls-1 {
        fill: #fff;
      }
    </style>
  </defs>
  <path class="cls-1" d="M1374.33,77.97l-164.1,314.34c-3.54,6.82-13.67,6.82-17.23,0l-164.26-314.34c-1.63-3.14-4.86-5.11-8.39-5.11h-79.38c-5.38,0-8.83,5.78-6.28,10.55l258.51,486.93c3.6,6.74,13.19,6.74,16.79,0l258.53-486.91c2.55-4.79-.9-10.57-6.28-10.57h-79.51c-3.52,0-6.76,1.99-8.4,5.11"/>
  <path class="cls-1" d="M1467.49,497.44l164.1-314.34c3.54-6.82,13.67-6.82,17.23,0l164.24,314.34c1.65,3.14,4.88,5.11,8.41,5.11h79.36c5.4,0,8.83-5.78,6.3-10.55L1648.6,5.05c-3.6-6.74-13.19-6.74-16.77,0l-258.53,486.93c-2.57,4.79.9,10.57,6.26,10.57h79.53c3.5,0,6.76-1.99,8.41-5.11"/>
  <path class="cls-1" d="M239.98,502.55H92.02c-5.23,0-9.5-4.29-9.5-9.55v-133.51c0-5.28,4.27-9.55,9.5-9.55h147.96c70.52,0,101.99,20.12,101.99,76.3s-30.81,76.32-101.99,76.32M92.11,145.53h145.88c53.78,0,81.18,23.15,81.18,65.81s-27.3,65.81-81.18,65.81H92.11c-5.25,0-9.5-4.29-9.5-9.57v-112.48c0-5.28,4.25-9.55,9.5-9.55M346.11,304.75c34.23-17.23,55.66-54.55,55.66-100.5,0-78.27-60.66-131.38-146.26-131.38H9.5c-5.23,0-9.5,4.29-9.5,9.55v483.39c0,5.32,4.27,9.59,9.5,9.59h235.21c117.73,0,179.78-50.97,179.78-150.76s-78.38-119.89-78.38-119.89"/>
  <path class="cls-1" d="M744.58,502.55h-147.94c-5.23,0-9.5-4.29-9.5-9.55v-133.51c0-5.28,4.27-9.55,9.5-9.55h147.94c70.53,0,102.01,20.12,102.01,76.3s-30.81,76.32-102.01,76.32M596.73,145.53h145.88c53.78,0,81.18,23.15,81.18,65.81s-27.3,65.81-81.18,65.81h-145.88c-5.25,0-9.5-4.29-9.5-9.57v-112.48c0-5.28,4.25-9.55,9.5-9.55M850.72,304.75c34.23-17.23,55.66-54.55,55.66-100.5,0-78.27-60.66-131.38-146.26-131.38h-246.01c-5.23,0-9.5,4.29-9.5,9.55v483.39c0,5.32,4.27,9.59,9.5,9.59h235.21c117.71,0,179.78-50.97,179.78-150.76s-78.38-119.89-78.38-119.89"/>
</svg>