<?xml version="1.0" encoding="UTF-8"?>
<svg id="Capa_1" data-name="Capa 1" xmlns="http://www.w3.org/2000/svg" viewBox="0 0 1920 408.64">
  <defs>
    <style>
      .cls-1 {
        fill: #fff;
      }
    </style>
  </defs>
  <g>
    <path class="cls-1" d="M311.99,106.5c34.07,19.14,65.06,36.55,98.01,55.06,0,21.45.51,43.12-.1,64.75-1.42,49.93,33.93,57.28,67.21,49.23,43.15-10.42,69.58-57.92,59.46-104.94-7.08-32.91-26.79-57.1-53.38-76.22-37.81-27.18-81-40.27-126.57-45.86-65.99-8.1-130.76-3.66-192.84,22.32-27.86,11.66-52.7,27.87-72.03,51.55-34.78,42.61-33.73,100.69,2.58,135.07,19.36,18.33,42.87,23.66,68.49,19.24,19.25-3.32,31.63-19.71,31.9-40.92.31-24.62.07-49.25.07-74.09,32.87-18.43,64.06-35.92,98.49-55.23,0,19.43.07,35.43-.01,51.42-.2,37.93.34,75.88-.95,113.78-1.36,40.09-23.63,64.5-63.77,69.09-52.62,6.02-101.39-5.5-143.55-38.67-58.36-45.92-65.43-132.22-16.09-192.09,31.41-38.11,73.51-59.16,120.18-71,91-23.08,181.15-21.11,268.96,14.68,35.75,14.57,66.32,36.74,87.77,69.73,43.44,66.79,24.7,149.97-43.47,190.92-41.27,24.79-86.17,33.37-133.65,24.95-32.73-5.81-53.71-27.77-55.34-61.09-2.08-42.71-1.09-85.57-1.38-128.36-.09-13.19-.01-26.38-.01-43.31Z"/>
    <path class="cls-1" d="M302.43,0C116.18,0,0,91.48,0,204.3s121.82,204.34,302.43,204.34,302.43-91.48,302.43-204.34S488.93,0,302.43,0ZM302.43,382.81c-169.1,0-283.17-70.32-283.17-186.98C19.26,104.06,128.06,8.84,302.43,8.84s283.17,95.94,283.17,186.98c0,118.13-112.77,186.98-283.17,186.98Z"/>
  </g>
  <g>
    <path class="cls-1" d="M814.75,134.47l223.35.07h31.75c3.5,0,5.77-1.89,5.77-5.06l-.03-42.89c0-4.21-1.26-4.84-2.54-6.12-1.8-1.81-5.45-1.94-16.48-1.94h-265.26c-22.5.23-40.38,3.57-53.63,10.05-12.85,6.92-39.02,23.64-39.02,75.57v76.74c0,62.7,25.77,72.53,36.61,79,14.06,8.04,32.74,12.06,56.04,12.06h208.9c22.5,0,36.1-2.67,49.12-10.23,14.48-8.44,25.57-23.85,25.57-69.63v-51.65c0-11.39,1.75-18.87-12.73-18.87h-197.01c-5.63.25-6.22,1.71-6.62,4.36v35.94c0,2.67,1.85,4.89,6.62,4.89h104.82c15.41,0,15.43-.18,15.43,8.13v24.08c0,6.53-6.03,15.28-19.78,15.28h-154.55c-21.37,0-22.47-12.95-22.47-22.16v-94.77c0-13.88,4.39-22.84,26.17-22.84Z"/>
    <path class="cls-1" d="M1513.48,77.57h-69.61c-6.88-.23-13.53,5.66-15.46,13.14l-45.3,140.9s-.49,2.49-2.7,2.49-2.78-2.6-2.78-2.6l-47.96-146.56c-1.57-5.16-4.46-7.6-11.64-7.36h-15.98c-7.51.43-9.21,3-11.09,7.68l-47.83,146.36s-.54,2.8-2.74,2.8-2.8-2.99-2.8-2.99l-45.66-140.05c-1.31-7.6-8.11-13.8-13.11-13.8h-72.89c-5.95,0-7.6,2.74-5.73,6.77l79.61,238.26c2.18,5.36,6.26,8.71,12.19,8.94h52.63c8.75.43,13.91-3.13,15.47-9.6l44.51-128.58s1.26-6.12,5.32-6.12,5.29,6.07,5.29,6.07l44.53,128.97c1.56,6,6.58,9.47,15.02,9.26h53.66c7.19.22,11.73-3.35,13.61-9.6l78.02-238.01c1.56-4.25-.63-6.35-6.57-6.35Z"/>
    <path class="cls-1" d="M1911.61,78.39h-71.48c-6.57-.21-16.31,3.2-19.3,9.94l-86.2,177.74s-.82,1.09-2.16,1.09c-1.44,0-2.64-1.44-2.64-1.44l-85.58-176.71c-2.51-6.05-12.14-11.06-19.95-10.62h-71.18c-7.51.22-8.44,2.16-8.75,7.3v234.88c.53,7.75,6.22,11.25,10.3,11.25h78.74c3.76-.45,3.7-2.57,4.34-6.37v-128.54s-.2-2.72,1.64-3.28c2.67-.81,4.33,3.09,4.33,3.09l60.02,126.74c2.81,5.57,4.8,8.38,10.43,8.38h36.28c5.63,0,7.78-2.8,10.9-8.38l60.13-126.98s1.2-2.84,3.77-2.42c1.85.3,2.09,2.47,2.09,2.47v129.27c.3,4.03.42,6.04,4.81,6.04h78c3.44-.45,9.42-4.71,9.82-11.59V85.68c.31-5.36-1.49-7.3-8.36-7.3Z"/>
  </g>
</svg>