<svg xmlns="http://www.w3.org/2000/svg" xmlns:xlink="http://www.w3.org/1999/xlink" width="100" zoomAndPan="magnify" viewBox="0 0 75 74.999997" height="100" preserveAspectRatio="xMidYMid meet" version="1.0"><defs><clipPath id="2052f69781"><path d="M 1.734375 1 L 74 1 L 74 74 L 1.734375 74 Z M 1.734375 1 " clip-rule="nonzero"/></clipPath></defs><g clip-path="url(#2052f69781)"><path fill="#75bcf9" d="M 32.234375 1.796875 C 72.363281 -2.996094 89.277344 48.601562 56.382812 67.976562 C 28.695312 84.285156 -4.527344 59.710938 2.792969 28.644531 C 5.894531 15.480469 18.613281 3.425781 32.234375 1.796875 Z M 32.355469 23.519531 C 31.96875 25.816406 32.632812 28.941406 32.355469 31.351562 L 25.847656 31.351562 L 25.847656 38.914062 L 32.355469 38.914062 L 32.355469 58.359375 L 39.945312 58.359375 L 39.945312 38.914062 L 46.457031 38.914062 C 46.457031 38.914062 46.996094 31.351562 46.996094 31.351562 L 39.941406 31.355469 C 39.269531 24.453125 40.265625 22.527344 47.539062 23.253906 L 47.476562 16.828125 C 41.898438 14.914062 33.457031 16.9375 32.351562 23.523438 Z M 32.355469 23.519531 " fill-opacity="1" fill-rule="nonzero"/></g></svg>