<svg xmlns="http://www.w3.org/2000/svg" xmlns:xlink="http://www.w3.org/1999/xlink" width="100" zoomAndPan="magnify" viewBox="0 0 75 74.999997" height="100" preserveAspectRatio="xMidYMid meet" version="1.0"><path fill="#75bcf9" d="M 33.058594 0.828125 C 82.617188 -4.449219 89.054688 68.207031 42.875 73.960938 C -7.289062 80.210938 -14.140625 5.855469 33.058594 0.828125 Z M 25.25 14.710938 C 19.894531 15.476562 15.539062 20.191406 14.855469 25.464844 C 14.023438 31.890625 13.480469 47.019531 15.804688 52.734375 C 18.191406 58.605469 23.613281 60.265625 29.539062 60.710938 C 35.96875 61.1875 50.953125 61.46875 56.003906 57.601562 C 62.140625 52.898438 61.628906 36.484375 61.039062 29.300781 C 60.464844 22.226562 57.402344 15.578125 49.5625 14.628906 C 44.375 14 30.359375 13.980469 25.25 14.710938 Z M 25.25 14.710938 " fill-opacity="1" fill-rule="nonzero"/><path fill="#75bcf9" d="M 28.613281 18.621094 C 33.675781 18.074219 46.339844 17.886719 50.921875 19.386719 C 53.054688 20.082031 54.984375 21.925781 55.757812 24.011719 C 57.1875 27.871094 57.109375 47.230469 55.59375 51.085938 C 54.375 54.195312 51.160156 55.882812 47.953125 56.246094 C 43.363281 56.761719 31.921875 56.761719 27.328125 56.246094 C 23.863281 55.855469 20.710938 54.050781 19.53125 50.683594 C 18.105469 46.601562 18.179688 28.730469 19.511719 24.554688 C 20.972656 19.96875 24.191406 19.097656 28.609375 18.621094 Z M 51.996094 27.210938 C 54.796875 24.417969 49.296875 19.859375 47.394531 24.027344 C 46.117188 26.816406 50.054688 29.144531 51.996094 27.210938 Z M 46.359375 29.214844 C 35.359375 17.910156 18.191406 34.550781 28.984375 45.703125 C 39.914062 56.996094 57.085938 40.234375 46.359375 29.214844 Z M 46.359375 29.214844 " fill-opacity="1" fill-rule="nonzero"/><path fill="#75bcf9" d="M 35.261719 30.257812 C 48.660156 27.496094 48.039062 46.816406 36.289062 45.097656 C 28.453125 43.949219 28.082031 31.734375 35.261719 30.257812 Z M 35.261719 30.257812 " fill-opacity="1" fill-rule="nonzero"/></svg>