<svg xmlns="http://www.w3.org/2000/svg" xmlns:xlink="http://www.w3.org/1999/xlink" width="100" zoomAndPan="magnify" viewBox="0 0 75 74.999997" height="100" preserveAspectRatio="xMidYMid meet" version="1.0"><path fill="#75bcf9" d="M 31.542969 0.832031 C 72.78125 -4.101562 90.160156 48.984375 56.355469 68.917969 C 27.902344 85.695312 -6.234375 60.417969 1.289062 28.457031 C 4.476562 14.90625 17.546875 2.507812 31.542969 0.832031 Z M 22.609375 14.664062 C 15.828125 15.785156 18.113281 25.535156 25.5625 23.207031 C 30.667969 21.613281 28.148438 13.742188 22.609375 14.664062 Z M 40.582031 26.789062 L 32.222656 26.789062 L 32.222656 52.90625 L 40.582031 52.90625 L 40.582031 37.070312 C 40.582031 36.800781 42.109375 34.371094 42.585938 34.066406 C 45.234375 32.375 50.054688 33.816406 50.054688 37.070312 L 50.054688 52.90625 L 58.136719 52.90625 C 58.6875 52.558594 58.855469 52.140625 58.972656 51.519531 C 59.433594 48.992188 59.238281 40.453125 58.992188 37.605469 C 58.039062 26.53125 48.929688 22.664062 40.589844 30.121094 Z M 27.765625 26.789062 L 19.683594 26.789062 C 18.886719 27.277344 18.914062 27.898438 18.816406 28.707031 C 18.273438 33.332031 18.273438 46.371094 18.816406 50.992188 C 18.910156 51.800781 18.886719 52.417969 19.683594 52.910156 L 27.765625 52.910156 Z M 27.765625 26.789062 " fill-opacity="1" fill-rule="nonzero"/></svg>