<?xml version="1.0" encoding="UTF-8"?>
<svg id="Capa_1" data-name="Capa 1" xmlns="http://www.w3.org/2000/svg" viewBox="0 0 1920 308.02">
  <defs>
    <style>
      .cls-1 {
        fill: #75bcf9;
      }
    </style>
  </defs>
  <path class="cls-1" d="M119.83,13.76c157.83-18.94,224.34,184.82,94.97,261.33C105.91,339.49-24.75,242.46,4.04,119.78,16.24,67.79,66.26,20.19,119.83,13.76ZM120.3,99.54c-1.51,9.07,1.1,21.41,0,30.93h-25.59v29.86h25.59v76.78h29.86v-76.78h25.6s2.13-29.87,2.13-29.87l-27.75.02c-2.64-27.26,1.28-34.86,29.88-31.99l-.24-25.38c-21.95-7.56-55.15.44-59.49,26.44Z"/>
  <path class="cls-1" d="M1348.37,13.76c157.83-18.94,224.34,184.82,94.97,261.33-108.9,64.4-239.55-32.62-210.76-155.3,12.2-52,62.22-99.6,115.79-106.03ZM1314.18,66.85c-25.95,4.31-17.2,41.73,11.31,32.79,19.53-6.12,9.89-36.32-11.31-32.79ZM1382.96,113.4h-31.99v100.24h31.99v-60.79c0-1.03,5.85-10.35,7.67-11.52,10.14-6.5,28.59-.97,28.59,11.52v60.79h30.93c2.11-1.34,2.76-2.94,3.2-5.33,1.77-9.69,1.02-42.47.08-53.4-3.65-42.51-38.51-57.35-70.44-28.72l-.02-12.8ZM1333.91,113.4h-30.93c-3.04,1.87-2.94,4.25-3.31,7.36-2.08,17.75-2.08,67.79,0,85.53.36,3.11.26,5.48,3.31,7.36h30.93v-100.24Z"/>
  <g>
    <path class="cls-1" d="M535.77.99c203.28-20.71,230.38,290.84,27.07,306.47C364.72,322.7,336.63,21.28,535.77.99ZM521.28,79.28h-49.06l59.74,82.15-59.74,67.13,16.15-1.96,51.04-55.57,44.79,57.55h45.86l-63.56-86.41,55.02-62.88c-5.26-.26-9.11-.77-13.97,2-8.5,4.85-43.59,51.38-48.92,51.33l-37.35-53.35Z"/>
    <polygon class="cls-1" points="608.73 217.89 586.37 215.75 493.56 89.96 516.1 91.93 608.73 217.89"/>
  </g>
  <g>
    <path class="cls-1" d="M1762.14,13.75c200.52-22.72,213.61,282.65,18.61,282.65-177.02,0-188.86-263.36-18.61-282.65ZM1747.24,88.44c-17.94,1.01-44.62-1.24-52.22,18.16-4.67,11.92-4.22,67.51-2.88,82.61,1.25,14.08,5.79,23.56,20.86,26.07,31.59,5.26,104.1,5.55,135.49,0,9.24-1.63,16.88-9.95,19.73-18.66,5.3-16.16,4.93-70.85-.4-87.11-4.28-13.03-14.33-18.22-27.39-19.53-29.26-2.94-63.8-3.19-93.19-1.54Z"/>
    <path class="cls-1" d="M1762.61,128.33c3.11-.55,5.23.53,7.93,1.67,9.09,3.84,25.65,13.37,34.79,18.62,2.18,1.25,5.36-.1,4.22,4.21-.67,2.53-40.71,22.17-46.94,22.42v-46.92Z"/>
  </g>
  <g>
    <path class="cls-1" d="M943.11,13.75c189.67-20.26,214.3,258.62,37.56,280.7-191.99,23.99-218.21-261.41-37.56-280.7ZM913.22,67.04c-20.49,2.94-37.16,21.03-39.78,41.27-3.19,24.66-5.26,82.74,3.63,104.67,9.13,22.54,29.89,28.91,52.57,30.61,24.61,1.84,81.96,2.91,101.28-11.93,23.49-18.05,21.53-81.06,19.28-108.62-2.21-27.16-13.93-52.68-43.93-56.32-19.85-2.41-73.49-2.49-93.05.32Z"/>
    <path class="cls-1" d="M926.09,82.04c19.38-2.09,67.85-2.81,85.38,2.94,8.16,2.67,15.55,9.74,18.51,17.75,5.48,14.82,5.18,89.13-.62,103.92-4.67,11.93-16.97,18.42-29.25,19.8-17.57,1.98-61.35,1.98-78.93,0-13.27-1.49-25.33-8.42-29.84-21.35-5.46-15.66-5.18-84.25-.08-100.29,5.59-17.59,17.91-20.94,34.82-22.77ZM1015.58,115.01c10.72-10.72-10.32-28.22-17.61-12.22-4.88,10.71,10.19,19.64,17.61,12.22ZM994.01,122.7c-42.1-43.39-107.8,20.49-66.49,63.29,41.83,43.34,107.54-20.99,66.49-63.29Z"/>
    <path class="cls-1" d="M951.54,126.7c51.28-10.59,48.9,63.56,3.93,56.96-29.99-4.4-31.41-51.29-3.93-56.96Z"/>
  </g>
</svg>