<svg xmlns="http://www.w3.org/2000/svg" xmlns:xlink="http://www.w3.org/1999/xlink" width="100" zoomAndPan="magnify" viewBox="0 0 75 74.999997" height="100" preserveAspectRatio="xMidYMid meet" version="1.0"><defs><clipPath id="3324f8fcb7"><path d="M 1 1.332031 L 73 1.332031 L 73 73.332031 L 1 73.332031 Z M 1 1.332031 " clip-rule="nonzero"/></clipPath></defs><g clip-path="url(#3324f8fcb7)"><path fill="#75bcf9" d="M 33.65625 1.566406 C 81.375 -3.277344 87.738281 69.550781 40.011719 73.203125 C -6.492188 76.765625 -13.089844 6.308594 33.65625 1.566406 Z M 30.257812 19.867188 L 18.738281 19.867188 L 32.761719 39.066406 L 18.738281 54.761719 L 22.53125 54.300781 L 34.511719 41.3125 L 45.027344 54.765625 L 55.789062 54.765625 L 40.871094 34.566406 L 53.785156 19.867188 C 52.550781 19.808594 51.648438 19.6875 50.507812 20.335938 C 48.511719 21.46875 40.273438 32.34375 39.023438 32.332031 L 30.257812 19.863281 Z M 30.257812 19.867188 " fill-opacity="1" fill-rule="nonzero"/></g><path fill="#75bcf9" d="M 50.785156 52.265625 L 45.535156 51.765625 L 23.75 22.363281 L 29.039062 22.824219 Z M 50.785156 52.265625 " fill-opacity="1" fill-rule="nonzero"/></svg>