<svg xmlns="http://www.w3.org/2000/svg" xmlns:xlink="http://www.w3.org/1999/xlink" width="100" zoomAndPan="magnify" viewBox="0 0 75 74.999997" height="100" preserveAspectRatio="xMidYMid meet" version="1.0"><defs><clipPath id="dfe83997cc"><path d="M 1 0 L 73.988281 0 L 73.988281 75 L 1 75 Z M 1 0 " clip-rule="nonzero"/></clipPath></defs><g clip-path="url(#dfe83997cc)"><path fill="#75bcf9" d="M 32.699219 0.828125 C 85.089844 -5.089844 88.511719 74.46875 37.5625 74.46875 C -8.691406 74.46875 -11.785156 5.855469 32.699219 0.828125 Z M 28.804688 20.289062 C 24.117188 20.550781 17.148438 19.964844 15.160156 25.019531 C 13.941406 28.125 14.058594 42.609375 14.410156 46.542969 C 14.734375 50.210938 15.921875 52.679688 19.859375 53.335938 C 28.113281 54.703125 47.058594 54.78125 55.261719 53.335938 C 57.675781 52.910156 59.671875 50.742188 60.414062 48.472656 C 61.800781 44.261719 61.703125 30.011719 60.3125 25.777344 C 59.191406 22.382812 56.566406 21.03125 53.15625 20.6875 C 45.507812 19.921875 36.484375 19.859375 28.804688 20.289062 Z M 28.804688 20.289062 " fill-opacity="1" fill-rule="nonzero"/></g><path fill="#75bcf9" d="M 32.820312 30.679688 C 33.632812 30.539062 34.1875 30.820312 34.894531 31.117188 C 37.269531 32.117188 41.59375 34.597656 43.984375 35.96875 C 44.554688 36.292969 45.382812 35.941406 45.085938 37.0625 C 44.910156 37.722656 34.449219 42.839844 32.820312 42.90625 Z M 32.820312 30.679688 " fill-opacity="1" fill-rule="nonzero"/></svg>